<svg width="20" height="22" viewBox="0 0 20 22" fill="none" xmlns="http://www.w3.org/2000/svg">
<path d="M7.98187 13.0317C7.78109 13.0317 7.58855 13.1128 7.44658 13.2571C7.30461 13.4013 7.22485 13.597 7.22485 13.801C7.22485 14.005 7.30461 14.2007 7.44658 14.345C7.58855 14.4892 7.78109 14.5703 7.98187 14.5703H12.0193C12.22 14.5703 12.4126 14.4892 12.5546 14.345C12.6965 14.2007 12.7763 14.005 12.7763 13.801C12.7763 13.597 12.6965 13.4013 12.5546 13.2571C12.4126 13.1128 12.22 13.0317 12.0193 13.0317H7.98187Z" fill="url(#paint0_linear_7308_802)"/>
<path fill-rule="evenodd" clip-rule="evenodd" d="M14.3954 5.75092L15.5358 5.79324C15.9678 5.81595 16.3604 5.85001 16.7167 5.90265C17.7826 6.05851 18.6648 6.39501 19.2916 7.18774C19.9184 7.9815 20.0557 8.93319 19.982 10.0314C19.9113 11.0956 19.6287 12.4385 19.2774 14.1159L18.8222 16.2907C18.585 17.423 18.3922 18.3406 18.15 19.057C17.8977 19.8053 17.5646 20.4195 16.9973 20.8891C16.4301 21.3588 15.772 21.5621 15.0049 21.6581C14.268 21.75 13.3495 21.75 12.2191 21.75H7.78195C6.64946 21.75 5.73196 21.75 4.99514 21.6581C4.22803 21.5621 3.56993 21.3588 3.00268 20.8891C2.43441 20.4195 2.10234 19.8053 1.85 19.058C1.60775 18.3406 1.41598 17.423 1.17777 16.2917L0.722555 14.1169C0.371301 12.4385 0.0896918 11.0956 0.018028 10.0314C-0.0556546 8.93319 0.081617 7.9815 0.708424 7.18774C1.33422 6.39501 2.21639 6.05851 3.28227 5.90265C3.63857 5.85104 4.03221 5.81595 4.46321 5.79324L7.33683 5.75092H12.6642C13.0699 5.75092 14.028 5.74885 14.3954 5.75092ZM3.6739 7.41069L3.26713 8.24264C3.22181 8.3337 3.19456 8.43302 3.18695 8.5349C3.17935 8.63677 3.19154 8.73917 3.22282 8.83621C3.2541 8.93324 3.30386 9.02298 3.36922 9.10025C3.43457 9.17753 3.51424 9.24081 3.60363 9.28644C3.69302 9.33208 3.79035 9.35917 3.89003 9.36616C3.9897 9.37314 4.08974 9.35988 4.18438 9.32713C4.27902 9.29439 4.36638 9.24282 4.44143 9.17538C4.51649 9.10794 4.57774 9.02598 4.62168 8.93422L5.41603 7.30954C5.99136 7.29922 6.64744 7.29818 7.3984 7.29818H12.6026C13.3536 7.29818 14.0096 7.29818 14.585 7.30851L15.3793 8.93422C15.4699 9.11627 15.6272 9.25431 15.817 9.31827C16.0067 9.38223 16.2134 9.36692 16.3921 9.27567C16.5708 9.18443 16.707 9.02465 16.7711 8.83115C16.8351 8.63764 16.8217 8.42611 16.7339 8.24264L16.3271 7.41069L16.5027 7.43443C17.395 7.56552 17.8321 7.80396 18.1147 8.16007C18.3922 8.51102 18.5285 8.98892 18.474 9.87868H1.52701C1.4725 8.98892 1.60876 8.51102 1.88634 8.16007C2.16895 7.80396 2.606 7.56552 3.49827 7.43443L3.6739 7.41069ZM2.21639 13.8537C2.04288 13.0476 1.88103 12.239 1.7309 11.428H18.2701C18.1194 12.2389 17.9572 13.0476 17.7836 13.8537L17.3516 15.9181C17.1013 17.1103 16.9277 17.935 16.7187 18.5522C16.5169 19.1509 16.311 19.4668 16.0455 19.6856C15.7811 19.9044 15.4348 20.0448 14.8222 20.1212C14.1873 20.2007 13.3616 20.2017 12.1696 20.2017H7.8304C6.63937 20.2017 5.81372 20.2007 5.17884 20.1212C4.56515 20.0448 4.21995 19.9044 3.9555 19.6856C3.69005 19.4668 3.48313 19.1499 3.28227 18.5522C3.07333 17.935 2.89871 17.1103 2.6494 15.9181L2.21639 13.8537Z" fill="url(#paint1_linear_7308_802)"/>
<path d="M16 8.75C16 8.75 14 0.75 10 0.75C6 0.75 4 8.75 4 8.75" stroke="url(#paint2_linear_7308_802)" stroke-width="1.5" stroke-linecap="round" stroke-linejoin="round"/>
<defs>
<linearGradient id="paint0_linear_7308_802" x1="7.07607" y1="13.2744" x2="12.7725" y2="14.1284" gradientUnits="userSpaceOnUse">
<stop stop-color="#C09E6C"/>
<stop offset="0.426246" stop-color="#FFEBCC"/>
<stop offset="1" stop-color="#BF936B"/>
</linearGradient>
<linearGradient id="paint1_linear_7308_802" x1="-0.536013" y1="8.27381" x2="20.3912" y2="9.3606" gradientUnits="userSpaceOnUse">
<stop stop-color="#C09E6C"/>
<stop offset="0.426246" stop-color="#FFEBCC"/>
<stop offset="1" stop-color="#BF936B"/>
</linearGradient>
<linearGradient id="paint2_linear_7308_802" x1="3.67839" y1="7.48809" x2="16.2199" y2="6.70653" gradientUnits="userSpaceOnUse">
<stop stop-color="#C09E6C"/>
<stop offset="0.426246" stop-color="#FFEBCC"/>
<stop offset="1" stop-color="#BF936B"/>
</linearGradient>
</defs>
</svg>
